<svg width="94" height="159" viewBox="0 0 94 159" fill="#ed5257" xmlns="http://www.w3.org/2000/svg">
<path d="M49.1094 0.078125C49.4363 0.0815887 49.7614 0.128021 50.0762 0.216248C50.7935 0.425461 51.4236 0.861664 51.8719 1.45938C52.3202 2.0571 52.5625 2.7841 52.5625 3.53125V70.6427H90.5469C91.4627 70.6427 92.341 71.0065 92.9886 71.6541C93.6362 72.3017 94 73.18 94 74.0959V155.469C94 156.385 93.6362 157.263 92.9886 157.91C92.341 158.558 91.4627 158.922 90.5469 158.922H4.21875C3.30293 158.922 2.42461 158.558 1.77702 157.91C1.12943 157.263 0.765625 156.385 0.765625 155.469V74.1649C0.765472 73.5109 0.951088 72.8702 1.30087 72.3175L46.1915 1.68382C46.503 1.19186 46.9339 0.786682 47.4441 0.505951C47.9542 0.225204 48.5271 0.0780334 49.1094 0.078125ZM87.0938 77.618H49.1094C48.1936 77.618 47.3152 77.2542 46.6676 76.6066C46.0201 75.9591 45.6562 75.0808 45.6562 74.1649V15.4618L7.67188 75.1836V152.016H87.0938V77.618Z" fill="#ed5257"/>
</svg>
